<svg width="71" height="71" viewBox="0 0 71 71" fill="none" xmlns="http://www.w3.org/2000/svg">
<rect width="71" height="71" rx="19" fill="url(#paint0_linear_62_4)"/>
<path d="M23.0136 53.1555L26.2696 39.0793L15.3493 29.6117L29.7761 28.3594L35.3866 15.0847L40.997 28.3594L55.4239 29.6117L44.5035 39.0793L47.7596 53.1555L35.3866 45.6916L23.0136 53.1555Z" fill="white"/>
<path d="M11.2651 10.48C11.6591 10.4831 12.0407 10.5631 12.41 10.7201C12.7824 10.874 13.1179 11.1233 13.4164 11.468C13.7149 11.8096 13.9519 12.2651 14.1273 12.8344C14.3028 13.4007 14.3905 14.0978 14.3905 14.9257C14.3905 15.6982 14.3228 16.4061 14.1873 17.0493C14.0519 17.6925 13.8488 18.2496 13.578 18.7204C13.3102 19.1883 12.9717 19.5514 12.5623 19.8099C12.1561 20.0654 11.6806 20.1931 11.1359 20.1931C10.628 20.1931 10.1772 20.0869 9.78323 19.8746C9.39237 19.6622 9.07537 19.3683 8.83223 18.9928C8.5891 18.6143 8.43829 18.1772 8.37982 17.6817H9.22925C9.31235 18.1865 9.51547 18.602 9.83863 18.9282C10.1649 19.2544 10.5973 19.4175 11.1359 19.4175C11.9083 19.4175 12.5085 19.0575 12.9363 18.3373C13.3641 17.6171 13.578 16.5923 13.578 15.2627H13.518C13.3702 15.5397 13.1763 15.7813 12.9363 15.9875C12.6993 16.1937 12.4285 16.3553 12.1238 16.4722C11.8191 16.5861 11.4975 16.643 11.1589 16.643C10.6327 16.643 10.151 16.5107 9.71398 16.246C9.27695 15.9783 8.92764 15.6136 8.66604 15.1519C8.40444 14.6872 8.27364 14.1578 8.27364 13.5638C8.27364 13.0037 8.39675 12.4897 8.64296 12.0219C8.89225 11.5511 9.24002 11.1756 9.68628 10.8955C10.1356 10.6124 10.6619 10.4739 11.2651 10.48ZM11.2651 11.2556C10.8558 11.2556 10.488 11.3602 10.1618 11.5695C9.83863 11.7757 9.58164 12.0543 9.39083 12.4051C9.20309 12.7529 9.10922 13.1391 9.10922 13.5638C9.10922 13.9916 9.20309 14.381 9.39083 14.7318C9.58164 15.0796 9.83863 15.3566 10.1618 15.5628C10.488 15.7659 10.8558 15.8675 11.2651 15.8675C11.579 15.8675 11.8714 15.8044 12.1422 15.6782C12.4131 15.5489 12.647 15.3735 12.844 15.1519C13.044 14.9303 13.1948 14.6795 13.2964 14.3994C13.401 14.1163 13.4426 13.8193 13.421 13.5084C13.3841 13.0776 13.2687 12.6929 13.0748 12.3543C12.884 12.0127 12.6316 11.745 12.3177 11.5511C12.0068 11.3541 11.656 11.2556 11.2651 11.2556Z" fill="white"/>
<defs>
<linearGradient id="paint0_linear_62_4" x1="2.60862" y1="1.82557e-06" x2="71" y2="71" gradientUnits="userSpaceOnUse">
<stop stop-color="#D76161"/>
<stop offset="1" stop-color="#A70000"/>
</linearGradient>
</defs>
</svg>
