<svg class="svg-icon" style="width: 1em;height: 1em;vertical-align: middle;fill: currentColor;overflow: hidden;" viewBox="0 0 1024 1024" version="1.1" xmlns="http://www.w3.org/2000/svg"><path d="M744.31 310.08a90.23 90.23 0 0 0-5.73-28.08q-0.68-1.87-1.43-3.71-1.91-4.77-4.23-9.38-2.11-4.18-4.55-8.18c-1-1.68-2.08-3.33-3.2-4.94q-0.83-1.2-1.69-2.38-1.47-2-3-4-3.13-4-6.59-7.75-2.85-3.06-5.94-5.87A81.52 81.52 0 0 0 694 225.46l-9.4-5.46-6.85-4-31.65-18.19-6-3.45-4.23-2.44-4-2.33-6.54-3.77-4.63-2.68-17.75-10.25-8.16-4.71-7.79-4.5L426.47 71c-10.77-6.21-24.59-10.17-36.11-3.51-4.06 2.35-68.14 39.6-85 49.38a21.36 21.36 0 0 0-6.38 2.95c-10.82 4.36-17.71 16.14-17.76 33.72l-1.58 558.12c-0.09 31.89 22.33 70.72 50.08 86.74l268 154.71c11.55 6.67 22.19 8.32 30.73 5.71a24.37 24.37 0 0 0 11.46-5.28 15.71 15.71 0 0 0 2.72-1.17l84.55-49.13a29.24 29.24 0 0 0 5-3.56c5-4.5 7.9-10.83 9.3-17.29a60.27 60.27 0 0 0 1.24-12.62c0-1 1.12-396.59 1.46-522v-17.06c0.11-13.06 0.13-20.49 0.13-20.63z" fill="#F5F9FF" /><path d="M426.47 71c-10.77-6.21-24.59-10.17-36.11-3.51-4.48 2.59-82 47.66-88.56 51.46l-2.8 1.62c11.55-6.71 25.55-2.39 36.28 3.81L540.75 243 587 163.68z" fill="#C0D3F2" /><path d="M581.65 160.6l-47.48 78.61 14.36 8.29 46.24-79.32z" fill="#BFD2F2" /><path d="M591 166l-46.79 79 12.44 7.18 46.24-79.32z" fill="#BED2F2" /><path d="M599.86 171.11l-47.28 78.72 24 13.84 44.14-80.54z" fill="#BDD1F2" /><path d="M617.8 181.47l-43.36 81 6.31 3.64 44.57-80.29z" fill="#BCD1F1" /><path d="M622.78 184.34l-43.7 80.79 7.94 4.58 44.84-80.14z" fill="#BBD0F1" /><path d="M628.82 187.83l-43.2 81.08 5.45 3.15 44.83-80.14z" fill="#BACFF1" /><path d="M632.85 190.16l-43.2 81.08 5.8 3.35 44.67-80.23z" fill="#B9CFF1" /><path d="M636.34 192.17l-42.46 81.51 7.19 4.15 45-80z" fill="#B8CEF1" /><path d="M642 195.44l-42.13 81.7 2.72 1.57c9.86 5.7 19.24 14.47 26.4 23.73l48.78-86.35z" fill="#B7CEF1" /><path d="M673 213.33l-44.9 88c1.79 2.25 4.26 5.74 6 8.25L684.6 220z" fill="#B6CDF1" /><path d="M694 225.46l-15.62-9-45.18 91.76q1.75 2.57 3.36 5.21c4.71 7.73 9.52 17.28 12.09 26.41l59.29-104.12A81.52 81.52 0 0 0 694 225.46z" fill="#B4CCF0" /><path d="M703.46 231.92l-55.28 106.31a87 87 0 0 1 3.33 13.1l62.37-109.73c-1.88-2.05-7.81-7.89-10.42-9.68z" fill="#B3CCF0" /><path d="M710.76 238.43l-59.64 110.82a85.08 85.08 0 0 1 1.71 18.29l67.65-118.2c-2.1-2.68-6.6-8.21-9.72-10.91z" fill="#B2CBF0" /><path d="M718.35 246.69L652.82 365.4v11.98l70.66-124c-0.98-1.38-3.83-5.29-5.13-6.69z" fill="#B1CBF0" /><path d="M725.17 255.75c-0.55-0.8-2.46-3.44-3-4.23l-69.38 123.11c0 4 0 12.48-0.05 18.92l75.63-132.85c-1.03-1.7-2.09-3.34-3.2-4.95z" fill="#B0CAF0" /><path d="M726.55 257.8l-73.8 132.61c0 4.76 0 14.17-0.06 20.1l80.23-141.63a107.19 107.19 0 0 0-6.37-11.08z" fill="#AFC9F0" /><path d="M731.59 266.31L652.7 406.47c0 5.17 0 15-0.06 20.95l84.51-149.18a98.16 98.16 0 0 0-5.56-11.93z" fill="#AEC9EF" /><path d="M744.31 310.08a90.23 90.23 0 0 0-5.73-28.08c-0.45-1.24-1.51-3.89-2-5.12l-83.92 146.31c-0.05 18.46-0.12 43.59-0.19 68l91.79-160.52c0.03-13.02 0.05-20.45 0.05-20.59z" fill="#ADC8EF" /><path d="M744.27 328.25l-91.8 159.89c0 5.57 0 13.77-0.06 19.57l91.8-160c0.02-6.39 0.04-14.54 0.06-19.46z" fill="#ACC8EF" /><path d="M637 954.62a10.53 10.53 0 0 0-1 0.51 3.75 3.75 0 0 0 1-0.51zM727.18 903.23a29.24 29.24 0 0 0 5-3.56c5-4.5 7.9-10.83 9.3-17.29a60.27 60.27 0 0 0 1.24-12.62c0-1 1.12-398.76 1.46-524.17l-91.75 159.62c-0.47 164.9-1.18 417.16-1.19 418.16 0 11.27-9.34 28-14.26 31.25 1.83-0.81 4-1.27 5.65-2.25z" fill="#ABC7EF" /><path d="M602.74 278.79c27.75 16 50.17 54.85 50.08 86.74l-1.58 558.12c-0.09 31.89-22.66 44.74-50.41 28.72l-268-154.72c-27.75-16-50.17-54.85-50.08-86.74l1.58-558.12c0.09-31.89 22.65-44.75 50.4-28.72z" fill="#F5F9FF" /><path d="M631.71 889.58a4.22 4.22 0 0 1-0.51 0.15h-0.1a4.65 4.65 0 0 1-0.63 0.08h-0.13a5.32 5.32 0 0 1-0.64 0h-0.08a6.19 6.19 0 0 1-0.69-0.11h-0.07a7.35 7.35 0 0 1-0.74-0.21h-0.05q-0.39-0.13-0.8-0.32h-0.05c-0.27-0.13-0.55-0.27-0.83-0.43L308.17 705c-0.28-0.16-0.56-0.34-0.84-0.53q-0.39-0.27-0.76-0.57l-0.08-0.07q-0.36-0.3-0.71-0.62l-0.08-0.08q-0.35-0.33-0.69-0.69l-0.06-0.06q-0.36-0.39-0.71-0.8-0.35-0.42-0.68-0.87c-0.2-0.27-0.39-0.55-0.58-0.84l-0.34-0.55-0.27-0.45-0.12-0.22c-0.15-0.26-0.29-0.52-0.42-0.78v-0.09q-0.24-0.48-0.46-1v-0.05q-0.21-0.48-0.39-1v-0.07q-0.18-0.5-0.33-1v-0.06q-0.14-0.48-0.26-1v-0.09c-0.08-0.33-0.14-0.66-0.19-1-0.05-0.33-0.09-0.66-0.12-1v-0.08-1l1.47-519.62v-1q0-0.4 0.11-0.78v-0.1q0.08-0.36 0.18-0.69v-0.12a6.15 6.15 0 0 1 0.23-0.6v-0.06a5.26 5.26 0 0 1 0.33-0.6 4.53 4.53 0 0 1 0.58-0.72l0.16-0.15a4.06 4.06 0 0 1 0.71-0.54l-3.33 1.93a4.06 4.06 0 0 0-0.71 0.54l-0.16 0.15a4.52 4.52 0 0 0-0.58 0.72 5.27 5.27 0 0 0-0.32 0.57v0.06c-0.06 0.13-0.12 0.26-0.17 0.4l-0.07 0.2V170.25q-0.06 0.21-0.11 0.43V171.09q0 0.2-0.06 0.4v1.3l-1.47 519.62V694.01q0 0.21 0.06 0.42c0 0.13 0 0.26 0.07 0.39s0.06 0.29 0.09 0.44v0.44l0.12 0.44 0.1 0.33v0.12l0.14 0.43 0.15 0.43v0.14l0.1 0.26 0.16 0.41 0.13 0.3v0.05l0.18 0.4 0.21 0.44v0.16l0.17 0.34 0.25 0.44 0.12 0.22v0.08l0.23 0.36 0.35 0.55 0.05 0.08q0.26 0.38 0.53 0.75l0.36 0.48 0.32 0.4 0.32 0.38 0.33 0.36 0.06 0.06 0.06 0.06 0.23 0.24 0.35 0.35 0.11 0.1 0.09 0.08 0.17 0.16 0.37 0.33 0.17 0.14 0.09 0.07 0.12 0.1 0.37 0.28 0.27 0.19 0.36 0.24 0.36 0.22h0.08l318.4 183.96 0.27 0.15 0.34 0.18 0.22 0.1h0.11l0.33 0.14 0.34 0.13h0.11l0.23 0.07 0.35 0.1H625.72l0.37 0.06h1.22l0.48-0.07h0.1a4.24 4.24 0 0 0 0.48-0.13 4 4 0 0 0 0.64-0.3l3.33-1.93a4 4 0 0 1-0.63 0.45z" fill="#C0D3F2" /><path d="M609.6 281.94a99.39 99.39 0 0 0-8.41-5.36c-71-41-244.38-141.21-260.12-150.33-6.84-4-13.81-8-21.54-9.64s-16.45-0.62-22.36 4.63c5.74-3.53 13.37-4.13 19.95-2.33 7 1.92 93 51 150.41 84.36 65.5 38 130.89 75.57 131.92 76.16a81.12 81.12 0 0 1 10.6 7.36l1.82-3.15c-0.75-0.58-1.5-1.15-2.27-1.7z" fill="#DEE8FF" /><path d="M627.46 299.09a95.67 95.67 0 0 0-16.51-16.16l-1.8 3.12A106.11 106.11 0 0 1 632 311.81l2.16-3.75c-2.16-3.06-4.35-6.06-6.7-8.97z" fill="#DBE6FE" /><path d="M640.72 319.16a99.8 99.8 0 0 0-7.26-12.07l-2.61 3c0.63 1 2.37 3.68 3 4.68a120.32 120.32 0 0 1 11.15 23.9l2.46-4.26a129.31 129.31 0 0 0-6.74-15.25z" fill="#D9E4FD" /><path d="M653 362.07a92 92 0 0 0-6-28.77l-2.49 4.08a90.23 90.23 0 0 1 5.19 28.92v3.31c0 0.55 0 24.37-0.12 58.76l3.3-5.6c0.12-35.77 0.12-60.47 0.12-60.7z" fill="#D6E2FB" /><path d="M652.89 420.44l-3.3 5.72c0 23.52-0.11 55.13-0.18 88l3.28-6c0.08-32.78 0.15-64.09 0.2-87.72z" fill="#D3E0FA" /><path d="M652.7 506.37l-3.29 5.69c0 18.41-0.08 41.07-0.12 61.13l3.28-7.16c0.05-20.03 0.09-41.24 0.13-59.66z" fill="#D0DFF9" /><path d="M652.57 564.31l-3.28 5.69c0 19.11-0.09 41.83-0.13 61.61l3.27-6.38c0.05-19.81 0.09-41.82 0.14-60.92z" fill="#CEDDF8" /><path d="M652.43 622.86l-3.27 5.66c0 13.58-0.06 29.4-0.09 43l3.26-5.19c0.03-13.61 0.07-29.89 0.1-43.47z" fill="#CBDBF7" /><path d="M652.33 663.69l-3.26 5.65c-0.06 26.21-0.13 54.88-0.19 79.67l3.26-5.44c0.06-24.9 0.12-53.75 0.19-79.88z" fill="#C8D9F6" /><path d="M652.13 740.66l-3.26 5.64c0 18.38-0.1 39-0.14 55.73l3.26-6.78c0.01-16.8 0.1-36.25 0.14-54.59z" fill="#C5D7F4" /><path d="M652 793.49l-3.26 5.64c-0.09 30.81-0.17 61.91-0.26 83.35l3.28-6.78c0.07-22.2 0.15-52.06 0.24-82.21z" fill="#C3D5F3" /><path d="M648.76 940.89c2.29-6.47 2.78-13 2.81-19.84 0.05-10.35 0.11-26.94 0.18-48l-3.28 5.68c-0.11 28.31-0.21 46.36-0.3 48.66-0.4 10.65-3.61 19.37-12.86 28.08 6.69-1.57 11.15-8.11 13.45-14.58z" fill="#C0D3F2" /><path d="M599.63 279.53c27.75 16 50.18 54.85 50.52 86.91l-1.58 558.12c-0.53 31.72-23.1 44.57-50.85 28.55l-268-154.71c-27.75-16-50.18-54.85-50.08-86.74l1.58-558.12c0.09-31.89 22.66-44.74 50.41-28.72z m31.84 606.31l1.47-519.62c0-5.31-3.73-11.79-8.35-14.45L306.37 168c-4.63-2.67-8.39-0.53-8.41 4.78l-1.47 519.62c0 5.32 3.73 11.79 8.36 14.46l318.22 183.77c4.62 2.67 8.38 0.53 8.4-4.79" fill="#DEE8FF" /><path d="M493.62 244.25a9.23 9.23 0 0 1 4.17 7.22c0 2.65-1.9 3.73-4.2 2.4l-41.88-24.17a9.23 9.23 0 0 1-4.17-7.23c0-2.64 1.9-3.72 4.2-2.39zM432.74 206.82a12.87 12.87 0 0 1 5.84 10.12c0 3.72-2.64 5.22-5.88 3.35a12.88 12.88 0 0 1-5.84-10.12c0.02-3.72 2.65-5.17 5.88-3.35z" fill="#C0D3F2" /><path d="M453.78 852.17a19 19 0 0 1-9.42-2.86C433.12 842.82 424 827 424 814.13c0-9.16 4.75-15.08 12-15.08a19 19 0 0 1 9.42 2.86c11.24 6.49 20.36 22.28 20.32 35.19 0.04 9.15-4.68 15.07-11.96 15.07z" fill="#FFC2B6" /><path d="M436.07 800a18.1 18.1 0 0 1 8.92 2.73c11 6.34 19.86 21.7 19.82 34.32 0 8.93-4.51 14.09-11 14.09a18.12 18.12 0 0 1-8.93-2.73c-11-6.33-19.85-21.7-19.81-34.31 0-8.93 4.51-14.09 11-14.09m0-2c-7.88 0-13 6.31-13 16.08 0 13.23 9.3 29.4 20.81 36.05a20 20 0 0 0 9.93 3c7.88 0 13-6.31 13-16.08 0-13.23-9.3-29.41-20.82-36.06a20 20 0 0 0-9.92-3zM714.42 390.74c0-2.46-0.89-4.2-2.3-5l-4.23-2.46c-2-1.18-4.21-0.5-6.13 0.84l-0.1 0.08-0.16 0.12-0.14 0.1-0.38 0.29-0.27 0.23-0.19 0.16-0.14 0.13-0.45 0.42-0.55 0.57-0.49 0.55-0.19 0.22-0.16 0.2-0.14 0.18-0.39 0.5-0.23 0.32c-0.17 0.24-0.34 0.48-0.48 0.7l-0.25 0.41-0.15 0.25-0.26 0.45-0.15 0.29-0.18 0.34-0.12 0.23c-0.22 0.45-0.41 0.91-0.59 1.38l-0.16 0.46q-0.2 0.59-0.36 1.19c-0.12 0.46-0.23 0.92-0.31 1.39a14.52 14.52 0 0 0-0.2 2.37v12.24q0 10.36 0.06 20.73v21.26a7.82 7.82 0 0 0 0.31 1.63 5.46 5.46 0 0 0 0.36 0.87c0.05 0.1 0.1 0.21 0.16 0.31a4.24 4.24 0 0 0 0.59 0.74l0.12 0.12 0.07 0.07 0.11 0.08 0.15 0.12 0.26 0.2 0.15 0.12c0.23 0.16 0.48 0.32 0.73 0.46l0.23 0.14 0.39 0.21 0.14 0.08 0.16 0.09 0.19 0.1 0.49 0.27 0.55 0.3 0.43 0.25 0.14 0.08 0.19 0.11 0.27 0.16 0.21 0.12-0.11-0.08c1.43 0.92 3.45 0.86 5.69-0.43 4.29-2.48 7.79-8.54 7.78-13.47z" fill="#FF896E" /><path d="M694.59 397.66v12.24q0 10.36 0.06 20.73V451.03c0 0.28 0 0.63 0.05 0.92V395.2a14.89 14.89 0 0 0-0.11 2.46z" fill="#FFC2B6" /><path d="M694.79 395.29v56.6a7.9 7.9 0 0 0 0.34 1.73v-59.85a15 15 0 0 0-0.34 1.52z" fill="#FFC0B3" /><path d="M695.1 393.89v59.62a5.62 5.62 0 0 0 0.4 0.93v-61.86c-0.14 0.42-0.3 0.91-0.4 1.31z" fill="#FFBEB1" /><path d="M695.46 392.69v61.68a4.07 4.07 0 0 0 0.21 0.39v-62.65c-0.06 0.16-0.16 0.43-0.21 0.58z" fill="#FFBCAE" /><path d="M695.62 392.24v62.45a4.39 4.39 0 0 0 0.63 0.79v-64.7a15.33 15.33 0 0 0-0.63 1.46z" fill="#FFBAAB" /><path d="M696.21 390.86v64.57l0.16 0.17v-65.05z" fill="#FFB8A9" /><path d="M696.33 390.64v64.92l0.07 0.07 0.16 0.12v-65.53z" fill="#FFB5A6" /><path d="M696.5 390.3v65.41l0.22 0.17v-66c-0.06 0.12-0.16 0.32-0.22 0.42z" fill="#FFB3A3" /><path d="M696.66 390v65.82l0.33 0.25v-66.62z" fill="#FFB1A1" /><path d="M696.92 389.56V456l0.23 0.17v-67z" fill="#FFAF9E" /><path d="M697.32 388.89l-0.25 0.41v66.83c0.23 0.16 0.53 0.35 0.78 0.5v-68.51c-0.18 0.25-0.39 0.55-0.53 0.77z" fill="#FFAB99" /><path d="M697.8 388.19v68.41l0.33 0.2v-69z" fill="#FFA996" /><path d="M698 387.87v68.87l0.45 0.25V387.3z" fill="#FFA793" /><path d="M698.42 387.37V457l0.21 0.11v-70z" fill="#FFA591" /><path d="M698.56 387.19V457l0.25 0.13v-70.24z" fill="#FFA28E" /><path d="M698.72 387v70.12l0.28 0.15-0.09-4c-0.05-1 0-2 0-2.92v-18.42q0-15.58-0.09-31.16a22.64 22.64 0 0 1 0.14-2.4v-11.66z" fill="#FFA08B" /><path d="M698.91 386.78v12.07a16.8 16.8 0 0 1 0.56-3v-9.76c-0.14 0.21-0.4 0.5-0.56 0.69zM699.45 457.51v-1.4a10.66 10.66 0 0 1-0.49-2.84l-0.07 0.2 0.07 3.74zM699 448.43v-16.42-0.1 17.67l0.07 0.76c-0.14-0.68-0.07-1.34-0.07-1.91z" fill="#FF9E89" /><path d="M699.4 386.23v9.87a17.27 17.27 0 0 1 0.64-1.9v-8.64c-0.17 0.18-0.46 0.44-0.64 0.67zM700 457.82v-0.47a5.4 5.4 0 0 1-0.64-1.36v1.49z" fill="#FF9C86" /><path d="M700 457.8l0.48 0.28v-0.19a4.05 4.05 0 0 1-0.48-0.61v0.51zM700 385.66v8.77c0.11-0.27 0.22-0.53 0.34-0.8l0.16-0.3v-8.16z" fill="#FF9A83" /><path d="M700.4 385.24v8.19l0.2-0.38v-8s-0.14 0.13-0.2 0.19zM700.59 458.15V458l-0.18-0.18v0.2z" fill="#FF9881" /><path d="M700.54 385.11v8.05l0.28-0.53v-7.79zM700.76 458.25v-0.06l-0.22-0.21v0.14z" fill="#FF967E" /><path d="M700.73 385v7.85c0.09-0.17 0.26-0.5 0.35-0.67v-7.5zM701 458.42c-0.09-0.06-0.22-0.14-0.3-0.21v0.06z" fill="#FF947B" /><path d="M701 384.72v7.57c0.12-0.22 0.29-0.53 0.45-0.77v-7.14c-0.14 0.11-0.32 0.23-0.45 0.34zM701.21 458.52l-0.22-0.15z" fill="#FF9179" /><path d="M701.38 384.43v7.21l0.21-0.31v-7z" fill="#FF8F76" /><path d="M701.52 384.33v7.1l0.23-0.35v-6.91z" fill="#FF8D73" /><path d="M701.68 384.2v7l0.19-0.29 0.07-6.87a2.31 2.31 0 0 0-0.26 0.16z" fill="#FF8B71" /><path d="M701.78 384.13V391a16.24 16.24 0 0 1 3.35-3.74c1.85-1.48 4.7-2.88 7-1.54l-4.23-2.46c-2.01-1.15-4.2-0.47-6.12 0.87z" fill="#FF896E" /><path d="M706.6 386.27c4.29-2.48 7.81-0.47 7.83 4.47l0.15 53.8c0 4.93-3.49 11-7.78 13.47s-7.81 0.47-7.83-4.46l-0.15-53.8c-0.01-4.94 3.49-11 7.78-13.48z" fill="#FF896E" /><path d="M714.42 484.74c0-2.46-0.89-4.2-2.3-5l-4.23-2.46c-2-1.18-4.21-0.5-6.13 0.84l-0.1 0.08-0.16 0.12-0.14 0.1-0.38 0.29-0.27 0.23-0.19 0.16-0.14 0.13-0.45 0.42-0.55 0.57-0.49 0.55-0.19 0.22-0.16 0.2-0.14 0.18-0.39 0.5-0.23 0.32c-0.17 0.24-0.34 0.48-0.48 0.7l-0.25 0.41-0.15 0.25-0.26 0.45-0.15 0.29-0.18 0.34-0.12 0.23c-0.22 0.45-0.41 0.91-0.59 1.38l-0.16 0.46q-0.2 0.59-0.36 1.19c-0.12 0.46-0.23 0.92-0.31 1.39a14.52 14.52 0 0 0-0.2 2.37v12.24q0 10.36 0.06 20.73v21.26a7.82 7.82 0 0 0 0.31 1.63 5.46 5.46 0 0 0 0.36 0.87c0.05 0.1 0.1 0.21 0.16 0.31a4.24 4.24 0 0 0 0.59 0.74l0.12 0.12 0.07 0.07 0.11 0.08 0.15 0.12 0.26 0.2 0.15 0.12c0.23 0.16 0.48 0.32 0.73 0.46l0.23 0.14 0.39 0.21 0.14 0.08 0.16 0.09 0.19 0.1 0.49 0.27 0.55 0.3 0.43 0.25 0.14 0.08 0.19 0.11 0.27 0.16 0.21 0.12-0.11-0.08c1.43 0.92 3.45 0.86 5.69-0.43 4.29-2.48 7.79-8.54 7.78-13.47z" fill="#FF896E" /><path d="M694.59 491.66v12.24q0 10.36 0.06 20.73V545.03c0 0.28 0 0.63 0.05 0.92V489.2a14.89 14.89 0 0 0-0.11 2.46z" fill="#FFC2B6" /><path d="M694.79 489.28v56.6a7.9 7.9 0 0 0 0.34 1.73v-59.84a15 15 0 0 0-0.34 1.51z" fill="#FFC0B3" /><path d="M695.1 487.89v59.62a5.62 5.62 0 0 0 0.4 0.93v-61.86c-0.14 0.42-0.3 0.91-0.4 1.31z" fill="#FFBEB1" /><path d="M695.46 486.69v61.68a4.07 4.07 0 0 0 0.21 0.39v-62.65c-0.06 0.16-0.16 0.43-0.21 0.58z" fill="#FFBCAE" /><path d="M695.62 486.24v62.45a4.39 4.39 0 0 0 0.63 0.79v-64.7a15.33 15.33 0 0 0-0.63 1.46z" fill="#FFBAAB" /><path d="M696.21 484.86v64.57l0.16 0.17v-65.06z" fill="#FFB8A9" /><path d="M696.33 484.63v64.92l0.07 0.07 0.16 0.12v-65.53z" fill="#FFB5A6" /><path d="M696.5 484.29v65.41l0.22 0.17v-66c-0.06 0.13-0.16 0.33-0.22 0.42z" fill="#FFB3A3" /><path d="M696.66 484v65.82l0.33 0.25v-66.62z" fill="#FFB1A1" /><path d="M696.92 483.55V550l0.23 0.17v-67z" fill="#FFAF9E" /><path d="M697.32 482.89l-0.25 0.41v66.83c0.23 0.16 0.53 0.35 0.78 0.5v-68.51c-0.18 0.24-0.39 0.54-0.53 0.77z" fill="#FFAB99" /><path d="M697.8 482.19v68.41l0.33 0.2v-69z" fill="#FFA996" /><path d="M698 481.87v68.87l0.45 0.25V481.3z" fill="#FFA793" /><path d="M698.42 481.37v69.58l0.21 0.11v-70z" fill="#FFA591" /><path d="M698.56 481.19V551l0.25 0.13v-70.24z" fill="#FFA28E" /><path d="M698.72 481v70.12l0.28 0.15-0.09-4c-0.05-1 0-2 0-2.92v-18.43q0-15.58-0.09-31.16a22.64 22.64 0 0 1 0.14-2.4V480.7z" fill="#FFA08B" /><path d="M698.91 480.78v12.07a16.8 16.8 0 0 1 0.56-3v-9.76c-0.14 0.21-0.4 0.5-0.56 0.69zM699.45 551.51v-1.4a10.66 10.66 0 0 1-0.49-2.84l-0.07 0.2 0.07 3.74zM699 542.43v-16.42-0.1 17.67l0.07 0.76c-0.14-0.69-0.07-1.34-0.07-1.91z" fill="#FF9E89" /><path d="M699.4 480.23v9.87a17.27 17.27 0 0 1 0.64-1.9v-8.64c-0.17 0.18-0.46 0.44-0.64 0.67zM700 551.82v-0.47a5.4 5.4 0 0 1-0.64-1.36v1.49z" fill="#FF9C86" /><path d="M700 551.8l0.48 0.28v-0.19a4.05 4.05 0 0 1-0.48-0.61v0.51zM700 479.66v8.77c0.11-0.27 0.22-0.53 0.34-0.8l0.16-0.3v-8.16z" fill="#FF9A83" /><path d="M700.4 479.24v8.19l0.2-0.38v-8s-0.14 0.13-0.2 0.19zM700.59 552.15V552l-0.18-0.18v0.2z" fill="#FF9881" /><path d="M700.54 479.11v8.05l0.28-0.53v-7.79zM700.76 552.25v-0.06l-0.22-0.21v0.14z" fill="#FF967E" /><path d="M700.73 479v7.85c0.09-0.17 0.26-0.5 0.35-0.67v-7.5zM701 552.41c-0.09-0.06-0.22-0.14-0.3-0.21v0.06z" fill="#FF947B" /><path d="M701 478.72v7.57c0.12-0.22 0.29-0.53 0.45-0.77v-7.14c-0.14 0.1-0.32 0.23-0.45 0.34zM701.21 552.52l-0.22-0.15z" fill="#FF9179" /><path d="M701.38 478.43v7.21l0.21-0.31v-7z" fill="#FF8F76" /><path d="M701.52 478.32v7.1l0.23-0.35v-6.91z" fill="#FF8D73" /><path d="M701.68 478.2v7l0.19-0.29 0.07-6.87a2.31 2.31 0 0 0-0.26 0.16z" fill="#FF8B71" /><path d="M701.78 478.13V485a16.24 16.24 0 0 1 3.35-3.74c1.85-1.48 4.7-2.88 7-1.54l-4.23-2.46c-2.01-1.15-4.2-0.48-6.12 0.87z" fill="#FF896E" /><path d="M706.6 480.27c4.29-2.48 7.81-0.47 7.83 4.47l0.15 53.8c0 4.93-3.49 11-7.78 13.47s-7.81 0.47-7.83-4.46l-0.15-53.8c-0.01-4.94 3.49-11 7.78-13.48z" fill="#FF896E" /></svg>